<?xml version="1.0" standalone="no"?>
<!DOCTYPE svg PUBLIC "-//W3C//DTD SVG 20010904//EN"
 "http://www.w3.org/TR/2001/REC-SVG-20010904/DTD/svg10.dtd">
<svg version="1.0" xmlns="http://www.w3.org/2000/svg"
 width="512.000000pt" height="512.000000pt" viewBox="0 0 512.000000 512.000000"
 preserveAspectRatio="xMidYMid meet">
<metadata>
Created by potrace 1.16, written by Peter Selinger 2001-2019
</metadata>
<g transform="translate(0.000000,512.000000) scale(0.100000,-0.100000)"
fill="#000000" stroke="none">
<path d="M0 4605 l0 -515 40 6 c22 4 40 3 40 -2 -1 -17 -27 -43 -53 -53 -24
-9 -27 -16 -27 -61 0 -47 2 -50 26 -50 21 0 25 -4 22 -22 -2 -15 -11 -24 -25
-26 -31 -4 -30 -34 2 -68 29 -31 28 -48 -3 -52 l-22 -3 0 -685 c0 -601 2 -684
15 -684 19 0 19 -19 0 -26 -13 -5 -15 -146 -15 -1185 l0 -1179 605 0 c477 0
605 3 605 13 0 27 40 485 46 527 17 130 98 293 183 372 82 75 278 211 292 202
7 -4 9 -3 5 4 -4 6 40 42 108 88 64 42 134 93 157 112 47 40 95 131 105 199 7
51 16 50 19 -2 1 -20 -1 -31 -5 -25 -4 6 -7 -10 -8 -35 0 -42 1 -45 14 -28 12
16 12 14 2 -17 -6 -19 -18 -40 -26 -46 -8 -6 -12 -17 -9 -25 4 -10 6 -9 6 4 1
27 21 20 21 -9 0 -14 4 -23 9 -19 6 3 6 -6 1 -24 -6 -21 -5 -31 3 -35 9 -3 8
-5 0 -5 -7 -1 -13 -10 -13 -22 0 -11 5 -17 10 -14 6 4 8 10 5 15 -8 13 20 19
35 6 15 -11 22 -78 8 -69 -5 2 -8 13 -8 24 0 14 -6 19 -18 17 -30 -6 -20 -40
16 -52 18 -6 30 -15 26 -18 -4 -4 -16 -2 -28 4 -11 6 -18 7 -14 3 4 -5 3 -14
-2 -20 -6 -7 -7 -20 -4 -30 5 -11 9 -13 14 -5 5 8 9 4 13 -9 3 -14 1 -19 -6
-14 -6 4 -8 0 -4 -10 4 -11 2 -14 -8 -10 -8 3 -12 10 -8 16 3 5 1 7 -5 3 -7
-4 -6 -16 5 -37 12 -25 13 -33 3 -42 -10 -9 -12 -9 -8 3 3 9 0 24 -7 34 -12
15 -13 12 -9 -26 l4 -43 -13 45 c-9 35 -16 44 -31 42 -10 -2 -15 1 -12 6 3 5
0 15 -8 21 -8 7 -12 22 -10 34 3 16 0 14 -11 -8 l-16 -30 7 50 c8 70 8 69 17
76 12 9 14 159 2 156 -5 -1 -10 -12 -10 -23 0 -13 -5 -21 -14 -19 -16 2 -97
-73 -94 -86 2 -5 -3 -6 -10 -3 -14 5 -49 -27 -46 -42 4 -21 -2 -25 -17 -13
-15 12 -16 11 -10 -7 8 -26 -16 -39 -43 -25 -13 8 -18 6 -18 -5 0 -8 6 -13 13
-10 22 8 25 -24 4 -46 -11 -12 -17 -26 -13 -31 3 -6 1 -7 -6 -3 -9 6 -9 11 1
24 10 12 7 12 -14 -2 -25 -17 -42 -36 -18 -21 6 3 10 -1 10 -9 0 -9 -6 -16
-12 -16 -9 0 -9 -3 1 -9 20 -13 -4 -42 -27 -34 -10 3 -8 -1 6 -11 21 -17 24
-16 53 9 25 21 34 23 46 13 12 -9 16 -9 24 3 7 12 9 12 9 0 0 -14 -78 -91 -92
-91 -5 0 -8 -5 -8 -12 0 -7 -12 -26 -27 -42 -18 -20 -11 -16 16 9 31 29 42 34
37 20 l-6 -20 15 20 c29 39 60 68 97 91 21 14 38 29 38 36 0 6 3 8 6 5 4 -4
-1 -18 -10 -33 -10 -14 -15 -28 -13 -31 7 -6 40 45 43 64 3 20 14 30 14 13 0
-10 3 -10 15 0 10 9 15 9 15 1 0 -6 -5 -11 -11 -11 -5 0 -8 -4 -5 -8 3 -5 -18
-37 -45 -71 -57 -70 -61 -93 -5 -31 20 22 40 40 45 40 5 0 16 17 24 37 l16 38
-4 -52 c-3 -55 9 -70 25 -30 5 12 9 17 9 10 1 -10 -35 -80 -77 -151 -8 -14 -9
-22 -2 -22 6 0 -6 -33 -25 -73 -20 -39 -28 -63 -19 -52 18 23 56 103 58 125 1
8 9 26 18 40 9 14 22 37 28 51 16 35 37 34 32 -3 -2 -15 -7 -26 -11 -24 -3 2
-6 -14 -6 -35 -1 -35 0 -37 10 -19 11 21 11 21 23 -5 15 -33 15 -62 0 -71 -8
-5 -9 -2 -5 10 4 10 3 15 -3 11 -14 -9 -12 -24 4 -40 12 -12 15 -10 20 17 3
17 6 45 7 62 0 28 1 29 9 9 5 -12 7 -34 5 -50 -2 -16 1 -36 7 -44 7 -10 8 9 5
61 -6 83 9 55 17 -34 7 -74 16 -68 16 12 0 40 4 72 9 72 5 0 9 -34 9 -75 0
-44 5 -82 12 -90 9 -11 9 -15 1 -15 -6 0 -11 -4 -11 -10 0 -5 6 -10 14 -10 10
0 16 -13 19 -37 2 -21 4 18 5 87 1 70 6 130 11 135 6 6 4 37 -4 77 -7 37 -9
65 -4 62 5 -3 9 1 9 10 0 8 -6 17 -12 19 -7 3 -8 6 -2 6 6 1 9 16 8 33 -2 24
1 20 11 -17 l14 -50 -3 55 c-2 30 -5 60 -6 65 -1 6 -1 24 0 40 2 30 2 30 10 5
4 -14 8 -42 9 -62 1 -53 10 -71 27 -57 8 6 14 17 14 23 0 6 -4 5 -9 -3 -7 -10
-10 -10 -16 -1 -4 7 -2 16 5 20 9 6 9 13 1 28 -15 29 -14 37 5 22 13 -12 14
-10 3 14 -9 19 -15 23 -21 14 -6 -10 -8 -9 -8 3 0 9 6 22 14 28 10 9 17 7 27
-6 12 -14 12 -16 0 -8 -11 6 -13 4 -6 -11 4 -10 8 -28 9 -39 1 -23 33 -65 61
-81 22 -12 29 -45 12 -57 -8 -6 -7 -7 3 -4 8 2 29 -5 45 -16 l30 -21 -24 27
c-14 15 -26 34 -27 43 -1 9 -10 25 -20 35 -33 37 -24 50 14 21 21 -15 31 -19
23 -9 -7 9 -10 17 -5 17 5 1 -2 10 -15 21 -14 11 -26 29 -28 40 -3 18 -2 18
17 2 10 -9 17 -20 14 -24 -2 -5 5 -13 16 -19 11 -6 35 -26 53 -44 18 -17 21
-20 8 -5 -14 17 -20 33 -15 41 4 7 4 10 -1 6 -10 -9 -37 11 -30 22 3 4 -6 15
-19 24 -13 8 -34 30 -47 48 -18 27 -13 24 29 -16 28 -27 50 -54 49 -60 -1 -6
3 -10 10 -9 7 2 21 -11 33 -27 12 -17 26 -30 31 -30 6 0 1 14 -11 30 -12 16
-16 30 -10 30 7 0 7 7 -1 23 -11 21 -11 21 7 5 13 -12 30 -15 52 -12 23 4 32
1 32 -9 0 -7 7 -14 15 -14 9 0 14 6 11 14 -3 7 -1 13 5 13 6 0 7 5 4 10 -11
18 8 11 33 -12 14 -13 22 -18 19 -12 -3 6 -2 24 3 40 l10 29 -4 -28 c-3 -26
-3 -27 15 -11 12 11 19 13 19 5 0 -7 5 -9 10 -6 6 4 7 11 4 17 -4 7 -2 8 5 4
7 -4 20 2 31 16 13 16 19 18 20 8 0 -10 5 -7 16 8 8 12 21 22 28 22 8 0 16 7
20 15 3 8 10 15 16 15 5 0 20 10 32 22 16 16 17 20 4 15 -22 -9 -11 10 14 23
17 9 19 8 13 -7 -4 -12 1 -10 16 7 16 17 21 20 17 8 -7 -25 1 -22 15 3 8 15 8
19 0 15 -15 -10 -14 3 3 19 7 8 17 35 21 61 5 33 9 43 16 33 5 -9 7 7 4 41 -2
30 -4 60 -4 66 -1 13 -81 -4 -92 -20 -4 -5 -12 -5 -18 -2 -6 4 -11 3 -11 -2 0
-18 -53 -5 -71 17 -14 17 -19 19 -19 8 0 -9 5 -19 10 -22 6 -3 10 -11 10 -16
0 -14 -21 10 -42 48 -19 33 -26 70 -8 43 9 -13 10 -13 11 0 1 8 1 19 0 23 -1
5 3 6 9 2 5 -3 13 1 16 9 3 9 12 16 20 16 17 0 19 40 2 41 -20 1 64 38 88 39
11 0 28 6 37 13 15 10 13 12 -19 15 -21 1 -43 7 -50 12 -16 14 -24 49 -13 56
6 3 -2 21 -16 40 -14 19 -23 39 -19 46 5 7 3 8 -6 3 -10 -6 -12 -3 -8 11 3 11
-1 25 -9 32 -16 16 -18 36 -1 26 6 -4 8 -3 5 3 -8 13 12 75 22 69 4 -3 30 6
57 19 27 14 53 25 58 25 12 0 56 48 56 61 0 6 4 8 10 4 5 -3 14 12 21 34 9 32
9 44 -1 56 -18 21 -29 19 -40 -10 -6 -15 -15 -23 -24 -19 -16 6 -64 -16 -116
-54 -24 -18 -30 -20 -18 -6 9 11 19 37 21 57 3 22 14 47 26 58 21 20 29 35 12
24 -5 -3 -11 5 -13 17 -2 13 -10 23 -18 23 -8 0 -18 5 -22 10 -5 6 -12 4 -18
-5 -8 -13 -10 -13 -10 1 0 9 -7 16 -15 17 -8 1 -22 3 -30 4 -8 1 -15 6 -15 11
0 5 -11 20 -25 33 -14 13 -25 30 -25 39 0 9 -4 13 -10 10 -6 -3 -10 -1 -10 4
0 6 -7 11 -16 11 -11 0 -15 6 -11 19 4 16 0 19 -22 15 l-26 -4 29 25 c15 15
27 28 24 30 -3 4 -46 -36 -81 -75 -8 -8 -17 -27 -20 -41 -4 -14 -28 -47 -54
-75 -27 -27 -57 -68 -67 -91 -10 -23 -23 -40 -28 -37 -4 3 -6 9 -3 14 3 5 8
50 10 100 2 50 7 95 10 100 3 5 1 19 -5 30 -9 16 -8 25 2 38 11 13 11 15 -2 7
-8 -4 0 8 18 27 18 19 29 37 26 41 -4 4 -1 7 8 7 9 0 14 9 14 22 -1 13 5 23
12 23 10 0 15 7 11 18 -7 23 -5 37 7 37 8 0 14 9 14 20 0 11 7 23 15 26 8 4
15 13 15 21 0 8 5 11 12 7 6 -4 8 -3 5 4 -8 11 23 72 36 72 5 0 6 4 3 9 -3 5
5 16 19 25 28 19 34 11 8 -11 -10 -8 -13 -12 -7 -9 7 3 33 2 58 -3 25 -5 46
-6 46 -4 0 15 -36 63 -47 63 -7 0 -13 5 -13 10 0 6 -6 10 -14 10 -11 0 -5 18
20 66 19 36 34 74 34 83 0 15 9 18 58 19 31 0 62 1 67 3 6 1 31 -1 57 -5 46
-8 46 -8 43 -45 -3 -20 -2 -28 1 -18 3 9 10 15 15 12 5 -4 9 -2 9 4 0 5 23 11
52 13 33 2 53 8 56 17 5 14 -35 12 -85 -4 -20 -6 -23 -4 -23 20 0 25 -3 27
-35 23 -19 -2 -36 0 -38 5 -1 5 -49 11 -106 13 -56 2 -107 7 -113 10 -7 4 -8
2 -4 -4 4 -7 3 -12 -2 -12 -6 0 -13 7 -16 16 -4 9 -9 14 -13 10 -3 -3 -12 3
-20 14 -8 11 -19 20 -25 20 -6 0 -5 -7 3 -17 13 -16 12 -17 -3 -4 -10 7 -16
17 -13 21 2 4 -9 17 -25 29 -17 12 -30 27 -30 34 0 8 3 9 8 1 4 -6 18 -17 31
-24 19 -10 22 -10 16 1 -6 9 -3 11 9 6 11 -4 15 -3 11 4 -4 6 -13 8 -21 5 -7
-3 -11 0 -8 7 6 17 -43 60 -58 51 -7 -4 -8 -3 -4 4 4 7 -2 16 -16 21 -13 5
-36 23 -53 41 -30 32 -30 32 -5 26 l25 -7 -22 17 c-13 9 -23 23 -23 31 0 7 -7
16 -15 19 -8 4 -15 11 -15 18 0 6 -16 24 -35 39 -38 30 -46 27 -17 -7 17 -21
17 -21 -5 -3 -12 11 -21 27 -20 38 1 17 4 16 27 -6 30 -29 36 -30 44 -9 3 8 2
12 -4 9 -5 -3 -15 4 -20 17 -13 28 -57 52 -63 34 -3 -8 -9 -7 -20 3 -20 16
-23 1 -5 -18 11 -11 9 -11 -9 -2 -15 7 -24 8 -28 1 -4 -6 -2 -9 4 -8 5 2 17
-6 26 -17 9 -11 14 -14 10 -7 -12 23 2 12 35 -30 19 -23 28 -38 21 -34 -10 7
-11 4 -2 -12 16 -29 14 -37 -6 -21 -11 10 -14 10 -9 2 4 -7 3 -13 -3 -13 -5 0
-8 -10 -6 -21 4 -20 3 -20 -14 -5 -22 20 -74 124 -67 135 3 4 -1 8 -9 8 -18 0
-18 -2 -4 -30 10 -21 10 -21 -6 -2 -8 11 -13 25 -11 32 3 7 1 13 -5 13 -6 0
-7 5 -4 10 5 8 12 7 23 -2 12 -10 12 -6 -3 20 -11 17 -23 32 -28 32 -4 0 -5 5
-2 10 4 6 11 8 16 5 19 -12 8 7 -20 35 -16 17 -36 27 -47 25 -10 -2 -23 -4
-29 -4 -5 -1 -3 -6 5 -11 11 -7 11 -10 2 -10 -7 0 -11 -4 -8 -9 3 -5 -1 -12
-9 -15 -10 -3 -15 -16 -13 -35 2 -28 -14 -57 -39 -74 -7 -4 -13 -15 -13 -22 0
-18 -20 -20 -21 -2 -1 13 -20 -40 -21 -60 -1 -7 -9 -15 -19 -18 -18 -6 -55
-55 -42 -55 5 0 2 -4 -6 -9 -8 -5 -16 -22 -19 -38 -2 -15 -8 -33 -14 -40 -6
-8 -8 -31 -4 -57 6 -36 11 -44 24 -40 9 2 2 -3 -15 -11 -29 -13 -37 -24 -35
-47 1 -3 -5 -9 -13 -11 -9 -4 -14 2 -14 21 -2 55 -4 60 -20 54 -9 -3 -13 -2
-9 3 4 4 2 17 -4 28 -9 18 -18 61 -21 110 -1 17 -2 17 -13 2 -7 -9 -16 -17
-21 -18 -4 -1 -8 -7 -7 -13 1 -6 -4 -11 -11 -11 -7 0 -11 7 -8 16 3 12 2 12
-7 -2 -6 -9 -8 -23 -4 -30 4 -6 -2 -4 -13 6 -20 17 -20 17 -18 -8 3 -27 -15
-75 -28 -75 -5 0 -5 10 -1 23 3 12 3 19 -1 15 -12 -11 -15 -59 -3 -52 12 7 -2
-20 -26 -51 -15 -19 -15 -19 -10 5 5 20 4 22 -6 10 -10 -13 -11 -13 -7 0 2 8
11 14 20 12 11 -2 15 2 11 13 -8 19 -9 19 -29 -1 -8 -9 -13 -24 -10 -34 3 -10
-1 -25 -10 -33 -8 -9 -12 -24 -9 -34 4 -14 4 -15 -4 -4 -8 10 -11 6 -17 -18
-4 -17 -11 -29 -16 -25 -5 3 -10 0 -10 -5 -1 -6 -3 -15 -4 -21 -1 -5 -3 -18
-4 -27 -1 -12 -4 -14 -12 -6 -8 8 -7 19 4 39 8 16 22 54 32 84 19 61 83 183
115 220 11 12 20 26 20 30 0 4 18 26 40 51 23 24 47 58 54 75 8 17 24 42 37
56 34 36 70 98 58 98 -6 0 3 14 20 31 17 17 29 34 26 38 -2 5 11 26 30 49 19
22 35 46 35 53 0 26 96 153 149 198 31 25 82 72 113 104 32 31 62 57 67 57 6
0 14 6 18 14 4 7 31 25 58 39 28 14 61 37 74 51 38 40 83 50 216 47 153 -4
161 -4 216 0 45 4 45 4 45 41 -1 25 -8 44 -23 58 -13 11 -23 27 -23 35 0 7
-13 23 -29 34 -27 19 -29 24 -20 54 5 17 9 56 9 85 0 52 15 82 39 82 6 0 11 5
11 12 0 9 3 9 12 0 7 -7 21 -12 31 -12 17 0 18 -2 6 -17 -10 -11 -10 -14 -1
-9 25 15 11 -10 -20 -34 -59 -46 -70 -60 -59 -74 6 -7 8 -15 5 -19 -3 -3 4 -3
17 0 14 4 20 2 15 -5 -3 -6 8 -21 26 -33 18 -13 35 -26 38 -31 6 -8 83 12 96
25 13 13 36 8 31 -7 -5 -11 0 -12 23 -3 24 9 27 14 17 26 -10 12 -9 14 5 8 12
-4 15 -2 11 8 -3 8 -9 13 -13 10 -4 -2 -6 8 -4 24 2 17 -3 34 -11 41 -8 7 -15
21 -15 32 0 13 -4 17 -12 12 -9 -6 -9 -3 1 9 7 9 11 23 8 32 -4 8 1 21 9 30 9
9 11 15 4 15 -7 0 -5 6 4 16 9 8 16 21 16 27 0 7 -4 6 -10 -3 -7 -10 -10 -11
-10 -2 0 7 8 16 18 19 9 4 26 15 36 25 11 10 26 18 33 18 17 0 17 17 1 23 -10
4 -10 6 0 6 7 1 10 6 6 12 -3 6 0 15 7 20 11 7 11 9 -3 9 -22 0 -34 20 -18 30
10 6 6 14 -13 34 -24 24 -27 25 -53 11 -15 -8 -29 -24 -31 -35 -2 -12 1 -19 7
-15 17 11 11 -3 -11 -24 -23 -21 -17 -46 9 -36 14 5 14 3 -1 -13 -9 -10 -17
-24 -17 -30 0 -7 -4 -12 -10 -12 -5 0 -10 5 -10 10 0 19 -18 10 -23 -12 -5
-17 -9 -19 -20 -10 -8 7 -17 9 -20 5 -4 -3 -7 1 -7 10 0 11 -5 14 -17 10 -11
-4 -12 -8 -5 -11 7 -2 12 -11 11 -20 0 -10 -3 -12 -5 -5 -3 7 -12 9 -20 6 -9
-3 -14 2 -14 16 0 12 -5 21 -11 21 -5 0 -7 5 -4 10 3 6 1 10 -5 10 -8 0 -8 6
0 20 8 15 8 20 -1 20 -6 0 -9 10 -7 23 2 13 -2 29 -9 36 -14 13 -8 35 7 26 14
-9 20 26 8 48 -7 12 -11 26 -10 31 2 4 -9 5 -24 2 -22 -6 -25 -5 -17 6 9 10
-2 13 -58 15 -42 1 -69 -2 -69 -8 0 -6 -7 -3 -16 5 -8 9 -21 16 -28 16 -12 0
-126 58 -136 69 -3 3 -34 7 -70 8 -69 2 -136 -10 -185 -35 -39 -20 -80 -25
-67 -9 5 7 9 20 9 30 0 14 -10 17 -64 17 -43 0 -69 -5 -79 -14 -12 -13 -11
-15 6 -21 25 -8 26 -25 3 -26 -11 0 -13 -3 -5 -6 6 -2 12 -11 12 -19 0 -8 6
-11 18 -7 14 5 13 3 -3 -10 -11 -9 -26 -17 -32 -17 -18 0 -16 -25 2 -40 14
-12 14 -15 0 -30 -8 -9 -15 -31 -15 -48 0 -30 -1 -31 -25 -20 -28 13 -35 31
-8 21 10 -3 15 -3 12 1 -4 4 -19 9 -35 12 -23 4 -27 3 -16 -7 14 -15 16 -33 2
-24 -6 3 -7 -1 -4 -9 3 -9 1 -16 -5 -16 -6 0 -11 7 -11 15 0 13 -4 14 -21 4
-15 -8 -19 -8 -15 0 4 7 -1 11 -13 11 -11 0 -23 5 -26 10 -3 6 3 10 14 10 12
0 21 5 21 11 0 5 -4 7 -10 4 -5 -3 -10 -1 -10 4 0 6 7 11 16 11 11 0 15 6 12
18 -3 11 0 19 7 19 7 0 11 -6 8 -13 -2 -6 1 -15 8 -20 8 -4 10 -3 5 4 -4 7 -1
12 8 12 23 0 19 15 -6 28 l-23 11 24 0 c18 1 22 5 18 20 -3 13 -1 18 9 14 7
-2 10 -11 7 -19 -5 -12 -1 -13 21 -3 18 9 23 16 16 23 -14 14 -12 26 5 26 11
0 12 5 5 24 -5 13 -6 27 -2 31 3 3 -1 3 -11 -1 -12 -4 -17 -1 -17 12 0 16 -2
17 -11 4 -8 -11 -12 -12 -16 -2 -5 14 -73 17 -73 3 0 -5 -9 -11 -21 -14 -12
-3 -18 -10 -14 -17 4 -6 -1 -18 -11 -25 -18 -14 -18 -14 1 -15 l20 -1 -20 -9
c-11 -5 -15 -9 -9 -9 15 -1 23 -45 12 -65 -5 -9 -16 -16 -24 -16 -8 0 -13 -4
-10 -8 13 -21 -27 -6 -41 15 -8 13 -23 23 -32 23 -14 0 -14 2 -1 10 11 7 11
10 2 10 -8 0 -10 5 -6 12 5 8 2 9 -9 5 -9 -3 -19 -1 -23 5 -5 7 -2 8 6 3 10
-6 12 -4 7 8 -5 13 2 16 35 19 24 2 43 9 46 17 3 9 0 11 -8 6 -9 -5 -11 -4 -6
3 4 7 17 12 29 12 12 0 28 9 34 20 13 19 4 19 -957 20 l-970 0 0 -515z m2638
158 c19 -10 42 -28 49 -40 l14 -21 -48 14 c-33 11 -66 13 -108 9 -33 -4 -109
-9 -168 -11 -60 -1 -118 -6 -130 -10 -42 -13 1 22 56 47 91 40 266 46 335 12z
m-928 -385 c15 -10 22 -10 32 0 20 20 42 14 86 -27 23 -22 50 -40 60 -40 38 1
57 -9 60 -29 3 -20 8 -24 28 -21 4 0 11 -5 15 -13 7 -10 9 -9 9 5 0 20 16 23
23 3 5 -13 -13 -87 -30 -126 -7 -16 -10 -25 -12 -37 -1 -5 -6 -1 -11 7 -8 13
-10 12 -10 -2 0 -10 -4 -18 -10 -18 -5 0 -7 -7 -3 -16 5 -13 7 -13 14 -2 5 7
9 9 9 3 0 -5 5 -3 10 5 8 12 10 11 10 -7 0 -32 -10 -53 -26 -53 -8 0 -14 -4
-14 -8 0 -15 -98 -63 -122 -61 -13 1 -33 1 -46 1 -19 -2 -21 -5 -12 -21 14
-26 13 -31 -5 -31 -25 0 -35 41 -18 69 8 13 10 20 4 17 -6 -4 -11 -2 -11 5 0
13 38 49 52 49 5 0 6 5 3 10 -3 6 0 10 8 10 18 0 51 40 54 65 1 11 0 14 -3 7
-3 -6 -10 -9 -15 -6 -6 3 -5 11 2 20 9 11 9 14 0 14 -17 0 -35 20 -52 58 -8
18 -22 35 -31 38 -10 3 -18 10 -18 15 0 6 5 7 11 3 7 -4 7 1 -1 16 -10 18 -14
20 -22 9 -7 -11 -8 -9 -4 5 9 26 -22 53 -55 48 -15 -2 -30 1 -33 7 -5 8 -16 7
-36 -4 -27 -14 -28 -14 -22 7 3 14 1 19 -6 14 -7 -4 -12 -2 -12 4 0 10 50 8
81 -5 10 -4 19 0 22 9 8 19 21 20 47 4z m-468 -475 c10 -9 18 -24 18 -33 0
-10 13 -23 29 -30 18 -7 35 -26 46 -50 17 -38 17 -41 0 -66 l-17 -27 -17 26
c-18 31 -24 33 -44 12 -13 -12 -17 -12 -31 4 -9 10 -16 23 -16 29 0 13 40 43
51 37 4 -3 2 6 -4 20 -10 20 -17 24 -38 20 -29 -7 -44 6 -54 48 -7 25 -5 27
26 27 18 0 41 -7 51 -17z m1218 -1793 c0 -5 -4 -10 -9 -10 -5 0 -8 -26 -7 -57
1 -44 5 -58 16 -58 8 0 21 -4 28 -9 7 -4 30 -9 50 -11 62 -6 77 -12 76 -29 -1
-9 4 -16 12 -16 7 0 11 6 8 14 -3 8 -1 16 4 20 12 7 54 -23 47 -35 -4 -5 -1
-9 6 -9 7 0 9 -3 5 -7 -4 -5 -14 1 -22 11 -8 11 -14 15 -14 9 0 -7 -8 -14 -17
-16 -12 -3 -11 -4 3 -2 17 1 20 -3 16 -22 -3 -16 -8 -21 -16 -15 -18 15 -48
23 -41 12 4 -6 -7 -9 -27 -8 -25 2 -32 -1 -30 -12 1 -10 -4 -7 -17 7 -18 21
-61 28 -61 10 0 -5 -11 -2 -25 7 -28 18 -39 21 -30 6 3 -5 1 -10 -5 -10 -6 0
-13 7 -16 15 -6 14 -8 14 -19 -1 -11 -16 -12 -15 -20 2 -4 10 -9 24 -10 29 0
6 -5 22 -9 36 -5 17 -2 39 7 62 9 19 13 38 10 41 -3 3 6 10 21 16 17 6 24 14
20 22 -4 7 -3 8 5 4 6 -4 9 -12 6 -17 -3 -5 1 -6 9 -3 9 3 13 11 9 17 -3 6 -1
7 5 3 7 -4 12 -2 12 3 0 6 5 11 10 11 6 0 10 -4 10 -10z"/>
<path d="M4123 5113 c-15 -3 -20 -9 -16 -20 4 -10 2 -14 -4 -10 -7 5 -9 0 -6
-13 3 -11 1 -20 -5 -20 -6 0 -8 -10 -4 -22 3 -14 1 -19 -6 -14 -8 4 -10 2 -6
-7 3 -8 0 -18 -5 -22 -6 -3 -9 -10 -6 -15 8 -13 -43 -90 -59 -90 -3 0 -6 6 -6
14 0 8 -6 17 -12 19 -10 4 -9 8 2 16 13 9 13 11 -2 11 -9 0 -18 6 -21 13 -2 6
-8 8 -13 4 -5 -4 -2 -12 6 -17 30 -19 -20 -29 -77 -16 -26 6 -33 4 -33 -7 0
-9 -7 -22 -15 -31 -32 -32 12 -66 58 -45 21 10 29 9 42 -5 9 -9 21 -16 26 -16
5 0 9 -7 9 -15 0 -8 -4 -15 -10 -15 -13 0 -13 -36 0 -61 6 -10 7 -19 2 -19 -5
0 -7 -14 -4 -30 5 -38 -7 -120 -18 -120 -4 0 -6 9 -3 20 3 11 0 20 -6 20 -6 0
-11 -6 -11 -12 0 -9 -3 -8 -10 2 -8 12 -10 12 -15 -2 -4 -10 -3 -22 1 -29 4
-7 3 -9 -4 -5 -5 3 -13 0 -15 -6 -3 -8 -6 -5 -6 6 -1 15 -4 16 -15 7 -8 -7
-12 -21 -8 -34 5 -21 4 -21 -14 -6 -12 11 -26 14 -39 9 -11 -4 -28 -3 -37 2
-11 5 -18 5 -18 0 0 -5 -20 -8 -44 -6 -35 2 -44 0 -39 -12 3 -8 14 -14 25 -14
10 0 30 -12 45 -27 14 -16 31 -27 39 -25 8 2 14 -1 14 -6 0 -5 7 -9 15 -9 11
0 12 4 3 14 -16 19 -2 29 18 12 15 -12 16 -11 9 11 -7 21 -6 23 7 12 9 -7 23
-10 32 -6 11 4 16 0 17 -12 0 -11 3 -14 6 -6 2 6 18 12 35 12 27 0 30 2 24 25
-4 14 -2 25 4 25 5 0 11 -8 12 -17 0 -10 2 -24 2 -31 2 -18 56 -72 83 -83 15
-5 22 -14 18 -21 -4 -7 1 -4 9 6 15 18 17 16 42 -39 21 -48 23 -63 15 -82 -6
-13 -11 -53 -11 -89 0 -41 -4 -63 -10 -59 -5 3 -10 1 -10 -4 0 -6 -6 -11 -13
-11 -7 0 -28 -8 -47 -18 -19 -11 -47 -22 -62 -25 -15 -4 -35 -22 -48 -42 -12
-19 -27 -36 -33 -36 -40 -4 -77 -21 -77 -35 0 -9 10 -11 35 -7 33 5 35 4 35
-21 0 -19 -5 -26 -19 -26 -10 0 -24 -7 -31 -15 -19 -23 -28 -18 -44 20 -11 26
-21 35 -39 35 -14 0 -35 8 -48 19 -17 14 -26 15 -34 7 -13 -15 -42 -63 -63
-106 -9 -19 -21 -38 -26 -41 -9 -7 -2 -71 10 -103 4 -11 1 -16 -10 -16 -29 0
13 -58 56 -77 20 -9 35 -20 32 -24 -10 -16 41 -89 69 -98 27 -10 38 -31 15
-31 -7 0 3 -15 21 -34 22 -23 31 -40 27 -51 -3 -9 -3 -22 1 -28 8 -13 9 -19
22 -110 15 -101 26 -132 64 -185 56 -75 118 -255 166 -475 11 -53 50 -184 85
-291 l64 -194 11 -188 c10 -164 22 -271 50 -464 9 -67 -22 -170 -53 -170 -8 0
-3 45 7 51 14 10 9 139 -6 163 -20 32 -36 95 -37 146 -2 119 -6 157 -12 147
-4 -7 -7 40 -8 103 0 125 -12 222 -28 228 -5 1 -8 13 -5 25 4 17 2 19 -5 8 -8
-11 -12 -6 -18 25 -4 21 -8 44 -8 49 -1 6 -7 20 -14 33 -8 13 -11 30 -8 38 5
13 -6 19 -27 15 -5 -1 -6 3 -3 8 3 4 -10 39 -28 77 -19 38 -42 87 -51 109 -9
22 -20 47 -25 56 -5 9 -14 36 -21 60 -10 37 -13 41 -20 24 -7 -18 -8 -17 -8 7
-1 32 -17 46 -25 21 -2 -10 -2 -1 1 20 5 35 -1 43 -29 38 -10 -1 -10 56 0 61
4 2 2 19 -6 38 l-13 35 6 -35 c3 -25 2 -31 -5 -20 -5 8 -10 27 -10 43 0 15 -5
27 -11 27 -7 0 -9 -9 -5 -23 4 -17 1 -24 -9 -24 -8 0 -15 5 -15 10 0 6 -3 7
-6 4 -4 -4 6 -23 21 -43 16 -21 30 -49 31 -63 3 -25 2 -25 -9 -5 -7 12 -18 19
-25 17 -6 -3 -10 -9 -7 -14 4 -5 -1 -6 -9 -3 -9 3 -16 10 -16 16 0 5 -4 6 -10
3 -5 -3 -10 0 -10 7 0 9 -3 9 -10 -2 -8 -13 -10 -12 -10 3 0 9 7 17 15 17 8 0
15 4 15 8 0 5 -13 7 -30 6 -17 -1 -30 3 -31 9 -1 24 -18 -29 -18 -60 -1 -17
-5 -35 -11 -38 -5 -3 -10 -17 -10 -31 0 -13 -4 -24 -8 -24 -4 0 -16 -44 -26
-97 -47 -252 -99 -450 -143 -543 -19 -41 -41 -95 -48 -119 -36 -115 -44 -358
-16 -452 6 -20 21 -49 33 -64 24 -31 335 -237 418 -277 229 -112 426 -431 445
-722 5 -79 17 -221 21 -241 1 -5 2 -34 3 -62 l1 -53 400 0 400 0 0 2560 0
2560 -277 0 c-283 -1 -313 -4 -313 -39 0 -21 -25 -6 -28 17 -3 19 -10 22 -47
22 -29 0 -45 -5 -49 -15 -6 -17 -54 -14 -65 4 -6 9 -171 12 -218 4z"/>
<path d="M3425 4562 c-16 -2 -35 -10 -42 -19 -7 -8 -17 -12 -24 -7 -8 4 -10 3
-5 -4 4 -7 2 -12 -3 -12 -6 0 -11 -7 -11 -15 0 -8 5 -15 10 -15 6 0 10 -10 10
-22 0 -15 11 -30 33 -42 37 -22 82 -32 72 -16 -3 5 1 10 9 10 8 0 18 10 22 22
9 31 32 51 49 45 9 -4 13 1 12 13 -1 13 -5 16 -11 10 -17 -17 -29 -11 -15 6
12 15 11 16 -9 10 -16 -5 -22 -3 -22 8 0 10 -6 13 -17 9 -10 -4 -14 -2 -10 4
9 14 -10 20 -48 15z"/>
<path d="M3285 3200 c-3 -5 -21 -10 -38 -11 -27 0 -29 -2 -12 -9 18 -8 17 -9
-7 -9 -15 -1 -29 -5 -32 -9 -2 -4 12 -6 32 -4 l37 3 -25 -18 c-14 -10 -26 -25
-28 -33 -2 -8 -7 -17 -11 -20 -5 -3 -16 -20 -25 -37 -15 -29 -15 -36 -2 -60
13 -26 12 -31 -10 -63 -23 -34 -32 -66 -15 -56 4 3 6 -5 4 -17 -2 -12 1 -36 8
-52 7 -17 13 -34 13 -40 2 -16 117 -25 132 -10 10 9 10 15 1 24 -8 8 -4 11 18
11 28 0 28 1 9 16 -18 15 -18 15 10 11 27 -5 97 19 104 35 2 4 10 4 19 1 12
-5 14 -1 8 18 -4 15 -3 19 3 11 6 -10 13 -8 27 8 10 11 22 17 26 14 5 -3 9 0
9 6 0 7 8 9 21 5 16 -5 19 -4 14 6 -6 9 -3 11 11 6 18 -7 18 -6 -1 9 -11 8
-19 20 -17 26 6 22 -9 47 -25 41 -9 -4 -14 -2 -10 3 3 6 -4 10 -16 11 -12 0
-16 -1 -9 -4 6 -3 12 -9 12 -14 0 -5 -11 -3 -25 3 -14 6 -25 15 -25 20 0 4 -6
8 -13 8 -8 0 -22 9 -32 20 -18 20 -17 20 21 21 l39 2 -47 6 c-45 7 -77 21 -47
21 10 1 9 3 -3 11 -10 5 -18 16 -18 23 0 8 -8 17 -17 20 -15 6 -15 8 -3 16 8
6 31 10 50 11 34 1 34 1 -10 10 -25 5 -58 7 -73 4 -17 -3 -26 -1 -22 5 3 6 4
10 1 10 -3 0 -8 -4 -11 -10z"/>
<path d="M1583 252 c-2 -24 -34 -166 -39 -171 -2 -2 -3 18 -2 43 0 26 -5 53
-12 59 -10 10 -11 7 -7 -13 3 -14 2 -34 -3 -45 -5 -14 -8 -6 -8 28 0 64 -12
74 -13 11 -1 -79 -17 -101 -18 -25 -1 93 -9 71 -15 -42 l-6 -98 234 2 233 1
-8 45 c-5 24 -8 47 -7 51 1 4 -3 16 -8 27 -6 16 -11 8 -19 -40 -11 -59 -16
-59 -31 0 l-7 30 -7 -30 -8 -30 -2 35 c-1 19 -2 38 -1 43 0 4 -3 7 -8 7 -4 0
-13 -19 -19 -42 -11 -42 -11 -42 -6 -5 3 26 0 42 -11 53 -13 14 -15 13 -15
-10 0 -20 -4 -24 -17 -19 -12 5 -15 2 -10 -10 3 -9 2 -17 -3 -17 -6 0 -10 15
-11 33 0 26 -2 28 -9 12 -6 -17 -9 -15 -14 15 -3 19 -7 55 -9 80 l-3 45 -8
-43 c-6 -31 -11 -40 -18 -30 -6 9 -8 3 -6 -18 3 -20 0 -31 -9 -31 -7 0 -14 5
-14 11 -1 6 -2 16 -4 21 -1 6 -3 26 -4 45 -3 36 -5 34 -15 -11 -3 -14 -12 -26
-20 -26 -8 0 -12 5 -9 11 10 15 13 55 4 60 -3 3 -7 -3 -8 -12z"/>
</g>
</svg>
